<svg viewBox="0 0 64 64" xmlns="http://www.w3.org/2000/svg">
  <defs>
    <linearGradient id="bodhi-gold" x1="0" y1="0" x2="0" y2="1">
      <stop offset="0%" stop-color="#fde68a"/>
      <stop offset="50%" stop-color="#c9a05c"/>
      <stop offset="100%" stop-color="#7c4f1a"/>
    </linearGradient>
  </defs>
  <circle cx="32" cy="32" r="30" fill="#1a1410" stroke="#c9a05c" stroke-width="1"/>
  <path d="M32 6 C 22 6, 12 12, 10 22 C 8 32, 14 44, 24 50 C 28 53, 30 56, 31 60 L 32 62 L 33 60 C 34 56, 36 53, 40 50 C 50 44, 56 32, 54 22 C 52 12, 42 6, 32 6 Z"
        fill="url(#bodhi-gold)" fill-opacity="0.95"
        stroke="#c9a05c" stroke-width="1.2"/>
  <path d="M32 8 V 60" stroke="#1a1410" stroke-width="1.4" fill="none"/>
  <path d="M32 16 C 26 18, 20 22, 16 28" stroke="#1a1410" stroke-width="1" fill="none"/>
  <path d="M32 16 C 38 18, 44 22, 48 28" stroke="#1a1410" stroke-width="1" fill="none"/>
  <path d="M32 28 C 24 30, 18 36, 16 42" stroke="#1a1410" stroke-width="1" fill="none"/>
  <path d="M32 28 C 40 30, 46 36, 48 42" stroke="#1a1410" stroke-width="1" fill="none"/>
</svg>
